<svg width="33" height="50" viewBox="0 0 33 50" fill="none" xmlns="http://www.w3.org/2000/svg">
<path d="M31.3935 9.39463C30.6866 8.6875 29.7468 8.29805 28.7474 8.29805C28.0995 8.29805 27.4899 8.46338 26.9579 8.7543V7.8916C26.9579 6.89238 26.5686 5.95264 25.8615 5.24551C25.1544 4.53848 24.2147 4.14902 23.2153 4.14902C22.5674 4.14902 21.9577 4.31436 21.4258 4.60518V3.74258C21.4258 2.74326 21.0365 1.80352 20.3293 1.09639C19.6224 0.389356 18.6826 0 17.6832 0C15.6196 0 13.9408 1.67891 13.9408 3.74258V4.60293C13.398 4.30654 12.7867 4.14912 12.1513 4.14912C10.0876 4.14912 8.40872 5.82793 8.40872 7.8916V9.03535C8.40872 9.57461 8.84602 10.0119 9.38528 10.0119C9.92454 10.0119 10.3618 9.57461 10.3618 9.03535V7.8916C10.3618 6.90488 11.1646 6.10225 12.1513 6.10225C12.6289 6.10225 13.0782 6.28848 13.4163 6.62666C13.7545 6.96484 13.9408 7.41396 13.9408 7.8916V18.6127C13.9408 19.152 14.378 19.5893 14.9173 19.5893C15.4566 19.5893 15.8939 19.152 15.8939 18.6127C15.8939 15.6149 15.8939 6.58457 15.8939 3.74258C15.8939 2.75586 16.6966 1.95312 17.6832 1.95312C18.1609 1.95312 18.6101 2.13936 18.9483 2.47754C19.2865 2.81572 19.4727 3.26504 19.4727 3.74258V17.2296C19.4727 17.7689 19.91 18.2062 20.4492 18.2062C20.9885 18.2062 21.4258 17.7689 21.4258 17.2296V7.8916C21.4258 6.90488 22.2286 6.10225 23.2153 6.10225C23.6929 6.10225 24.1421 6.28848 24.4803 6.62666C24.8185 6.96484 25.0047 7.41396 25.0047 7.8916V18.6127C25.0047 19.152 25.442 19.5893 25.9813 19.5893C26.5205 19.5893 26.9578 19.152 26.9578 18.6127V12.0406C26.9578 11.0539 27.7606 10.2512 28.7473 10.2512C29.2249 10.2512 29.674 10.4374 30.0123 10.7757C30.3504 11.1138 30.5366 11.563 30.5366 12.0406V28.9756C30.5366 31.3534 29.6724 33.6478 28.1034 35.4355C26.7918 36.9283 26.0696 38.8449 26.0696 40.8321V41.8899H12.0627V39.8104C12.0627 38.2322 11.6101 36.6977 10.7538 35.3729C4.65149 25.9315 2.94886 23.2517 2.59505 22.666C1.59593 21.0126 1.92073 20.4774 2.44983 19.9491C3.04055 19.3584 3.94788 19.2523 4.65413 19.6901C4.79925 19.7808 4.94514 19.9146 5.08567 20.0855L8.62893 24.4212C8.89016 24.7408 9.32425 24.8614 9.71311 24.723C10.102 24.5844 10.3616 24.2161 10.3616 23.8032V17.8244C10.3616 17.2851 9.92434 16.8479 9.38509 16.8479C8.84583 16.8479 8.40852 17.2851 8.40852 17.8244V21.065L6.59612 18.8474C6.31888 18.5102 6.01331 18.2361 5.68557 18.0317C4.20237 17.1123 2.30393 17.3329 1.06917 18.5677C-0.738059 20.3723 0.120438 22.3476 0.923368 23.6762C1.44807 24.5447 4.20364 28.8369 9.1135 36.4334C9.76517 37.4415 10.1096 38.6094 10.1096 39.8106V41.8901H9.70325C9.16399 41.8901 8.72669 42.3274 8.72669 42.8667V49.0234C8.72669 49.5627 9.16399 50 9.70325 50H28.4291C28.9684 50 29.4057 49.5627 29.4057 49.0234V42.8665C29.4057 42.3272 28.9684 41.8899 28.4291 41.8899H28.0227V40.8321C28.0227 39.3196 28.5725 37.8608 29.5711 36.7242C31.4532 34.5795 32.4898 31.8276 32.4898 28.9756V12.0406C32.49 11.0412 32.1005 10.1015 31.3935 9.39463ZM27.4528 48.0469H10.68V43.8431H27.4528V48.0469Z" fill="#B1915F"/>
<path d="M13.228 32.6049L18.9426 36.8955C19.1162 37.0259 19.3225 37.0911 19.5289 37.0911C19.7352 37.0911 19.9415 37.0259 20.1152 36.8955L25.8299 32.6047C27.3081 31.4944 28.0773 29.7057 27.8877 27.82C27.7008 25.9602 26.6123 24.3855 24.9762 23.6076C23.1206 22.7255 20.9939 23.0985 19.5289 24.4568C18.064 23.0985 15.9375 22.7253 14.0816 23.6076C12.4454 24.3855 11.357 25.9602 11.1701 27.82C10.9805 29.7058 11.7497 31.4945 13.228 32.6049ZM13.1134 28.0154C13.2313 26.8418 13.9068 25.8535 14.9203 25.3717C15.3572 25.164 15.7854 25.0734 16.192 25.0734C17.2736 25.0734 18.1996 25.7147 18.7122 26.4958C18.8928 26.7709 19.2004 26.9366 19.5294 26.9366C19.8584 26.9366 20.1653 26.771 20.3458 26.4958C21.051 25.4214 22.5384 24.611 24.1376 25.3716C25.1511 25.8535 25.8265 26.8418 25.9445 28.0153C26.0651 29.215 25.5839 30.3469 24.6571 31.0429L19.5289 34.8934L14.4009 31.043C13.474 30.347 12.9927 29.2151 13.1134 28.0154Z" fill="#B1915F"/>
<path d="M9.38525 14.4065C9.92459 14.4065 10.3618 13.9693 10.3618 13.4299C10.3618 12.8906 9.92459 12.4534 9.38525 12.4534C8.84591 12.4534 8.40869 12.8906 8.40869 13.4299C8.40869 13.9693 8.84591 14.4065 9.38525 14.4065Z" fill="#B1915F"/>
</svg>
