<svg width="50" height="50" viewBox="0 0 50 50" fill="none" xmlns="http://www.w3.org/2000/svg">
<path d="M49.4934 10.8134L30.0201 0.120449C29.7276 -0.0401496 29.3728 -0.0401496 29.0802 0.120449L21.7404 4.15067C21.5855 4.19148 21.4409 4.2693 21.3211 4.38107L9.60737 10.8134C9.29494 10.9847 9.10078 11.3127 9.10078 11.6694V24.602C7.12477 25.22 5.31394 26.3098 3.80828 27.8159C-0.116272 31.74 -1.11687 37.7253 1.31843 42.7092C1.55494 43.1936 2.13973 43.3947 2.6242 43.1578C3.10905 42.9209 3.3097 42.3361 3.07319 41.8516C1.0041 37.6169 1.8544 32.5316 5.1892 29.1968C7.27469 27.1113 10.0472 25.9627 12.9963 25.9627C15.9455 25.9627 18.718 27.1113 20.8035 29.1968C22.8886 31.2819 24.0372 34.0544 24.0372 37.0035C24.0372 39.9527 22.8886 42.7252 20.8031 44.8107C17.4683 48.1455 12.3829 48.9958 8.14825 46.9267C7.66378 46.6898 7.07899 46.8908 6.84248 47.3753C6.60559 47.8601 6.80624 48.4449 7.29109 48.6814C9.1065 49.5687 11.0543 49.9998 12.9879 49.9998C16.3613 49.9994 19.6896 48.6864 22.1844 46.1916C23.3284 45.0476 24.2325 43.7277 24.8722 42.293L29.0802 44.6035C29.2267 44.684 29.3884 44.7241 29.5502 44.7241C29.7119 44.7241 29.874 44.684 30.0201 44.6035L49.4934 33.911C49.8058 33.7393 50 33.4112 50 33.0549V26.2682C50 25.7288 49.5628 25.2917 49.0234 25.2917C48.484 25.2917 48.0468 25.7288 48.0468 26.2682V32.477L30.5298 42.0958V22.9384L36.3109 19.7638V24.7961C36.3109 25.1418 36.4933 25.4614 36.7905 25.6369C36.9438 25.7273 37.1155 25.7727 37.2875 25.7727C37.4492 25.7727 37.6114 25.7326 37.7582 25.6518L41.9311 23.355C42.2432 23.1833 42.4366 22.8556 42.4366 22.4997V16.4L48.0468 13.3197V18.4561C48.0468 18.9955 48.484 19.4327 49.0234 19.4327C49.5628 19.4327 50 18.9955 50 18.4561V11.6694C50 11.3131 49.8058 10.9847 49.4934 10.8134ZM29.5502 2.09035L46.9944 11.6694L41.4917 14.691L24.0475 5.11197L29.5502 2.09035ZM29.5502 21.2481L12.106 11.6694L17.8105 8.5368L35.255 18.1155L29.5502 21.2481ZM37.2837 17.0016L19.8395 7.42291L22.0185 6.22624L39.463 15.8049L37.2837 17.0016ZM22.1844 27.8159C19.73 25.3615 16.4669 24.0099 12.9963 24.0099C12.3398 24.0099 11.6913 24.0584 11.0539 24.1534V13.3197L28.577 22.9418V42.0992L25.5356 40.4291C25.835 39.3267 25.9899 38.1769 25.9899 37.0035C25.9899 33.5329 24.6384 30.2698 22.1844 27.8159ZM40.4838 21.9225L38.2641 23.1444V18.6915L40.4838 17.4727V21.9225Z" fill="#B1915F"/>
<path d="M49.0233 21.381C48.7666 21.381 48.5144 21.4855 48.3329 21.6671C48.1513 21.8487 48.0468 22.1004 48.0468 22.3575C48.0468 22.6143 48.1513 22.866 48.3329 23.0476C48.5144 23.2296 48.7666 23.3337 49.0233 23.3337C49.28 23.3337 49.5322 23.2296 49.7138 23.0476C49.8954 22.866 49.9999 22.6143 49.9999 22.3575C49.9999 22.1004 49.8954 21.8487 49.7138 21.6671C49.5322 21.4855 49.28 21.381 49.0233 21.381Z" fill="#B1915F"/>
<path d="M9.7126 37.9802C9.96246 37.9802 10.2127 37.8848 10.4031 37.6944C10.7845 37.313 10.7845 36.6946 10.4031 36.3131L9.72671 35.6364H15.4983C16.8983 35.6364 18.0374 36.7755 18.0374 38.1755C18.0374 39.5755 16.8983 40.7145 15.4983 40.7145H12.0785C11.5391 40.7145 11.1019 41.1517 11.1019 41.6911C11.1019 42.2301 11.5391 42.6673 12.0785 42.6673H15.4983C17.9752 42.6673 19.9905 40.6524 19.9905 38.1755C19.9905 35.6986 17.9752 33.6837 15.4983 33.6837H9.72671L10.4031 33.007C10.7845 32.6255 10.7845 32.0071 10.4031 31.6257C10.022 31.2446 9.40361 31.2446 9.02214 31.6257L6.67839 33.9694C6.29731 34.3509 6.29731 34.9692 6.67839 35.3507L9.02214 37.6941C9.21287 37.8848 9.46273 37.9802 9.7126 37.9802Z" fill="#B1915F"/>
<path d="M4.49939 46.4793C4.22168 46.4793 3.94587 46.3611 3.75323 46.1318L3.75133 46.1295C3.40419 45.7168 3.45759 45.1011 3.87034 44.754C4.28309 44.4064 4.89917 44.4598 5.2463 44.8726C5.59306 45.2857 5.5408 45.9026 5.12805 46.2497C4.94456 46.4038 4.7214 46.4793 4.49939 46.4793Z" fill="#B1915F"/>
</svg>
