<svg width="69" height="53" viewBox="0 0 69 53" fill="none" xmlns="http://www.w3.org/2000/svg">
<path d="M67.5267 12.748L44.6098 0.164336C44.2106 -0.0547785 43.7266 -0.0547785 43.3274 0.164336L34.7096 4.89637C34.5149 4.9505 34.3333 5.04991 34.1792 5.18731L20.4104 12.748C19.9842 12.9823 19.7192 13.4299 19.7192 13.916V16.6401H4.34691C3.61097 16.6401 3.01453 17.237 3.01453 17.9724C3.01453 18.7084 3.61097 19.3048 4.34691 19.3048H19.7192V24.1014H12.0804C11.3445 24.1014 10.7481 24.6984 10.7481 25.4338C10.7481 26.1697 11.3445 26.7662 12.0804 26.7662H19.7192V33.6945H8.52725C7.79132 33.6945 7.19487 34.2915 7.19487 35.0269C7.19487 35.7628 7.79132 36.3593 8.52725 36.3593H19.7192V39.0839C19.7192 39.57 19.9842 40.0176 20.4104 40.2518L43.3274 52.8355C43.5272 52.9454 43.7479 53 43.9686 53C44.1893 53 44.4099 52.9454 44.6098 52.8355L67.5267 40.2518C67.953 40.0176 68.2179 39.57 68.2179 39.0839V33.1173C68.2179 32.3819 67.6215 31.785 66.8855 31.785C66.1496 31.785 65.5532 32.3819 65.5532 33.1173V38.2954L45.301 49.4161V27.2882L51.7417 23.7516V29.3643C51.7417 29.8358 51.9904 30.272 52.3959 30.5114C52.6046 30.6347 52.8393 30.6967 53.0741 30.6967C53.2947 30.6967 53.5159 30.642 53.7163 30.5317L58.6274 27.8289C59.0526 27.5947 59.317 27.1476 59.317 26.6615V19.5921L65.5532 16.168V22.4583C65.5532 23.1942 66.1496 23.7907 66.8855 23.7907C67.6215 23.7907 68.2179 23.1942 68.2179 22.4583V13.916C68.2179 13.4299 67.953 12.9823 67.5267 12.748ZM42.6362 49.4161L22.384 38.2954V16.168L42.6362 27.2882V49.4161ZM43.9686 24.9799L23.82 13.916L30.1524 10.4388L50.3016 21.5027L43.9686 24.9799ZM53.0699 19.9825L32.9207 8.91849L35.1051 7.71935L55.2537 18.7833L53.0699 19.9825ZM56.6522 25.8741L54.4064 27.1102V22.2886L56.6522 21.0551V25.8741ZM58.0221 17.263L37.8735 6.19908L43.9686 2.85252L64.1172 13.916L58.0221 17.263Z" fill="#B1915F"/>
<path d="M66.8855 26.4561C66.5353 26.4561 66.1912 26.5971 65.9435 26.8464C65.6958 27.0941 65.5532 27.4366 65.5532 27.7884C65.5532 28.1387 65.6958 28.4827 65.9435 28.7305C66.1912 28.9782 66.5353 29.1208 66.8855 29.1208C67.2358 29.1208 67.5798 28.9782 67.8276 28.7305C68.0753 28.4827 68.2179 28.1387 68.2179 27.7884C68.2179 27.4366 68.0753 27.0941 67.8276 26.8464C67.5798 26.5971 67.2358 26.4561 66.8855 26.4561Z" fill="#B1915F"/>
<path d="M3.24195 33.6947H1.33238C0.596449 33.6947 0 34.2917 0 35.0271C0 35.763 0.596449 36.3595 1.33238 36.3595H3.24195C3.97789 36.3595 4.57433 35.763 4.57433 35.0271C4.57433 34.2917 3.97789 33.6947 3.24195 33.6947Z" fill="#B1915F"/>
<path d="M8.08383 25.4339C8.08383 25.0837 7.94122 24.7402 7.69296 24.4924C7.44522 24.2442 7.10172 24.1016 6.75145 24.1016C6.40066 24.1016 6.05715 24.2442 5.80941 24.4924C5.56011 24.7402 5.41907 25.0837 5.41907 25.4339C5.41907 25.7847 5.56011 26.1282 5.80941 26.376C6.05715 26.6237 6.40066 26.7663 6.75145 26.7663C7.10172 26.7663 7.44522 26.6242 7.69296 26.376C7.94122 26.1282 8.08383 25.7847 8.08383 25.4339Z" fill="#B1915F"/>
</svg>
