<svg width="49" height="50" viewBox="0 0 49 50" fill="none" xmlns="http://www.w3.org/2000/svg">
<path d="M24.5 50C22.0626 50 19.771 49.0315 18.0474 47.2731C16.8663 46.0682 15.2959 45.4045 13.6254 45.4045C8.59367 45.4045 4.50012 41.228 4.50012 36.0945C4.50012 34.3903 3.84961 32.7882 2.66843 31.5831C-0.889476 27.9531 -0.889476 22.0469 2.66843 18.4169C3.84961 17.2118 4.50012 15.6097 4.50012 13.9055C4.50012 8.77197 8.59377 4.59551 13.6254 4.59551C15.2959 4.59551 16.8663 3.93184 18.0474 2.72686C19.771 0.968457 22.0626 0 24.5 0C26.9374 0 29.229 0.968457 30.9526 2.72686C32.1337 3.93184 33.7041 4.59551 35.3746 4.59551C40.4063 4.59551 44.4999 8.77197 44.4999 13.9055C44.4999 15.6097 45.1504 17.2118 46.3316 18.4169C49.8895 22.0469 49.8895 27.9531 46.3316 31.5831C45.1504 32.7882 44.4999 34.3903 44.4999 36.0945C44.4999 41.228 40.4062 45.4045 35.3746 45.4045C33.7041 45.4045 32.1337 46.0682 30.9526 47.2731C29.229 49.0315 26.9374 50 24.5 50ZM24.5 2.93271C22.8986 2.93271 21.2971 3.55459 20.0779 4.79834C18.3545 6.55674 16.0629 7.5251 13.6254 7.5251C10.1771 7.5251 7.37171 10.3873 7.37171 13.9054C7.37171 16.3921 6.42246 18.73 4.69893 20.4884C2.26066 22.9761 2.26066 27.0238 4.69893 29.5114C6.42246 31.2698 7.37162 33.6077 7.37162 36.0944C7.37162 39.6125 10.177 42.4747 13.6253 42.4747C16.0628 42.4747 18.3544 43.4431 20.0778 45.2015C22.5162 47.6891 26.4836 47.6891 28.922 45.2015C30.6454 43.4431 32.937 42.4747 35.3745 42.4747C38.8228 42.4747 41.6282 39.6125 41.6282 36.0944C41.6282 33.6077 42.5774 31.2698 44.301 29.5114C46.7392 27.0237 46.7392 22.976 44.301 20.4884C42.5774 18.73 41.6283 16.3921 41.6283 13.9054C41.6283 10.3873 38.8229 7.5251 35.3746 7.5251C32.9371 7.5251 30.6455 6.55674 28.9221 4.79834C27.7029 3.55459 26.1014 2.93271 24.5 2.93271Z" fill="#B1915F"/>
<path d="M24.5 39.7463C16.5302 39.7463 10.0463 33.1313 10.0463 25.0002C10.0463 16.8692 16.5302 10.2542 24.5 10.2542C32.4698 10.2542 38.9537 16.8692 38.9537 25.0002C38.9537 33.1313 32.4698 39.7463 24.5 39.7463ZM24.5 13.1838C18.1136 13.1838 12.9179 18.4846 12.9179 25.0002C12.9179 31.5159 18.1136 36.8167 24.5 36.8167C30.8864 36.8167 36.0821 31.5159 36.0821 25.0002C36.0821 18.4846 30.8864 13.1838 24.5 13.1838Z" fill="#B1915F"/>
<path d="M22.4695 31.4735L16.8856 25.7766L18.9161 23.705L22.4695 27.3303L30.0839 19.5618L32.1144 21.6333L22.4695 31.4735Z" fill="#B1915F"/>
</svg>
